<mxfile host="app.diagrams.net" modified="2023-12-25T16:29:09.162Z" agent="Mozilla/5.0 (Windows NT 10.0; Win64; x64) AppleWebKit/537.36 (KHTML, like Gecko) Chrome/120.0.0.0 Safari/537.36" etag="LhgLxp9eL54O8h0__FS5" version="22.1.11" type="google">
  <diagram name="第 1 页" id="VaEXk_aMnnaZ5cf0GFj7">
    <mxGraphModel grid="1" page="1" gridSize="10" guides="1" tooltips="1" connect="1" arrows="1" fold="1" pageScale="1" pageWidth="827" pageHeight="1169" math="0" shadow="0">
      <root>
        <mxCell id="0" />
        <mxCell id="1" parent="0" />
        <mxCell id="7rCot_XlE3gBc3dF8sh2-19" value="" style="rounded=0;whiteSpace=wrap;html=1;fillColor=#d5e8d4;strokeColor=#82b366;" vertex="1" parent="1">
          <mxGeometry x="50" y="180" width="10" height="40" as="geometry" />
        </mxCell>
        <mxCell id="7rCot_XlE3gBc3dF8sh2-1" value="管理者" style="shape=umlActor;verticalLabelPosition=bottom;verticalAlign=top;html=1;outlineConnect=0;" vertex="1" parent="1">
          <mxGeometry x="40" y="80" width="30" height="60" as="geometry" />
        </mxCell>
        <mxCell id="7rCot_XlE3gBc3dF8sh2-2" value=":SystemAssitant" style="rounded=0;whiteSpace=wrap;html=1;fillColor=#d5e8d4;strokeColor=#82b366;" vertex="1" parent="1">
          <mxGeometry x="130" y="90" width="100" height="50" as="geometry" />
        </mxCell>
        <mxCell id="7rCot_XlE3gBc3dF8sh2-3" value=":CarCatalog" style="rounded=0;whiteSpace=wrap;html=1;fillColor=#d5e8d4;strokeColor=#82b366;" vertex="1" parent="1">
          <mxGeometry x="270" y="95" width="80" height="40" as="geometry" />
        </mxCell>
        <mxCell id="7rCot_XlE3gBc3dF8sh2-4" value=":car" style="rounded=0;whiteSpace=wrap;html=1;fillColor=#d5e8d4;strokeColor=#82b366;" vertex="1" parent="1">
          <mxGeometry x="384" y="95" width="60" height="40" as="geometry" />
        </mxCell>
        <mxCell id="7rCot_XlE3gBc3dF8sh2-5" value="" style="endArrow=none;dashed=1;html=1;rounded=0;" edge="1" parent="1" source="7rCot_XlE3gBc3dF8sh2-17">
          <mxGeometry width="50" height="50" relative="1" as="geometry">
            <mxPoint x="55" y="460" as="sourcePoint" />
            <mxPoint x="54.5" y="160" as="targetPoint" />
          </mxGeometry>
        </mxCell>
        <mxCell id="7rCot_XlE3gBc3dF8sh2-6" value="" style="endArrow=none;dashed=1;html=1;rounded=0;" edge="1" parent="1" source="7rCot_XlE3gBc3dF8sh2-20">
          <mxGeometry width="50" height="50" relative="1" as="geometry">
            <mxPoint x="180" y="450" as="sourcePoint" />
            <mxPoint x="179.5" y="140" as="targetPoint" />
          </mxGeometry>
        </mxCell>
        <mxCell id="7rCot_XlE3gBc3dF8sh2-7" value="" style="endArrow=none;dashed=1;html=1;rounded=0;" edge="1" parent="1" source="7rCot_XlE3gBc3dF8sh2-10">
          <mxGeometry width="50" height="50" relative="1" as="geometry">
            <mxPoint x="413.5" y="435" as="sourcePoint" />
            <mxPoint x="413" y="135" as="targetPoint" />
          </mxGeometry>
        </mxCell>
        <mxCell id="7rCot_XlE3gBc3dF8sh2-8" value="" style="endArrow=none;dashed=1;html=1;rounded=0;" edge="1" parent="1" source="7rCot_XlE3gBc3dF8sh2-14">
          <mxGeometry width="50" height="50" relative="1" as="geometry">
            <mxPoint x="310" y="225" as="sourcePoint" />
            <mxPoint x="309.5" y="135" as="targetPoint" />
          </mxGeometry>
        </mxCell>
        <mxCell id="7rCot_XlE3gBc3dF8sh2-11" value="" style="endArrow=none;dashed=1;html=1;rounded=0;" edge="1" parent="1" target="7rCot_XlE3gBc3dF8sh2-10">
          <mxGeometry width="50" height="50" relative="1" as="geometry">
            <mxPoint x="413.5" y="435" as="sourcePoint" />
            <mxPoint x="413" y="135" as="targetPoint" />
          </mxGeometry>
        </mxCell>
        <mxCell id="7rCot_XlE3gBc3dF8sh2-10" value="" style="rounded=0;whiteSpace=wrap;html=1;fillColor=#d5e8d4;strokeColor=#82b366;" vertex="1" parent="1">
          <mxGeometry x="404" y="360" width="20" height="40" as="geometry" />
        </mxCell>
        <mxCell id="7rCot_XlE3gBc3dF8sh2-13" value="" style="endArrow=none;dashed=1;html=1;rounded=0;" edge="1" parent="1" target="7rCot_XlE3gBc3dF8sh2-12">
          <mxGeometry width="50" height="50" relative="1" as="geometry">
            <mxPoint x="180" y="450" as="sourcePoint" />
            <mxPoint x="179.5" y="140" as="targetPoint" />
          </mxGeometry>
        </mxCell>
        <mxCell id="7rCot_XlE3gBc3dF8sh2-12" value="" style="rounded=0;whiteSpace=wrap;html=1;fillColor=#d5e8d4;strokeColor=#82b366;" vertex="1" parent="1">
          <mxGeometry x="170" y="360" width="20" height="40" as="geometry" />
        </mxCell>
        <mxCell id="7rCot_XlE3gBc3dF8sh2-15" value="" style="endArrow=none;dashed=1;html=1;rounded=0;" edge="1" parent="1" target="7rCot_XlE3gBc3dF8sh2-14">
          <mxGeometry width="50" height="50" relative="1" as="geometry">
            <mxPoint x="310" y="225" as="sourcePoint" />
            <mxPoint x="309.5" y="135" as="targetPoint" />
          </mxGeometry>
        </mxCell>
        <mxCell id="7rCot_XlE3gBc3dF8sh2-14" value="" style="rounded=0;whiteSpace=wrap;html=1;fillColor=#d5e8d4;strokeColor=#82b366;" vertex="1" parent="1">
          <mxGeometry x="300" y="190" width="20" height="40" as="geometry" />
        </mxCell>
        <mxCell id="7rCot_XlE3gBc3dF8sh2-16" value="" style="rounded=0;whiteSpace=wrap;html=1;fillColor=#d5e8d4;strokeColor=#82b366;" vertex="1" parent="1">
          <mxGeometry x="110" y="290" width="20" height="40" as="geometry" />
        </mxCell>
        <mxCell id="7rCot_XlE3gBc3dF8sh2-18" value="" style="endArrow=none;dashed=1;html=1;rounded=0;" edge="1" parent="1" target="7rCot_XlE3gBc3dF8sh2-17">
          <mxGeometry width="50" height="50" relative="1" as="geometry">
            <mxPoint x="55" y="460" as="sourcePoint" />
            <mxPoint x="54.5" y="160" as="targetPoint" />
          </mxGeometry>
        </mxCell>
        <mxCell id="7rCot_XlE3gBc3dF8sh2-17" value="" style="rounded=0;whiteSpace=wrap;html=1;fillColor=#d5e8d4;strokeColor=#82b366;" vertex="1" parent="1">
          <mxGeometry x="45" y="290" width="20" height="40" as="geometry" />
        </mxCell>
        <mxCell id="7rCot_XlE3gBc3dF8sh2-21" value="" style="endArrow=none;dashed=1;html=1;rounded=0;" edge="1" parent="1" source="7rCot_XlE3gBc3dF8sh2-12" target="7rCot_XlE3gBc3dF8sh2-20">
          <mxGeometry width="50" height="50" relative="1" as="geometry">
            <mxPoint x="180" y="360" as="sourcePoint" />
            <mxPoint x="179.5" y="140" as="targetPoint" />
          </mxGeometry>
        </mxCell>
        <mxCell id="7rCot_XlE3gBc3dF8sh2-20" value="" style="rounded=0;whiteSpace=wrap;html=1;fillColor=#d5e8d4;strokeColor=#82b366;" vertex="1" parent="1">
          <mxGeometry x="170" y="170" width="20" height="60" as="geometry" />
        </mxCell>
        <mxCell id="7rCot_XlE3gBc3dF8sh2-23" value="" style="endArrow=classic;html=1;rounded=0;exitX=1;exitY=0.25;exitDx=0;exitDy=0;entryX=0;entryY=0.25;entryDx=0;entryDy=0;" edge="1" parent="1" source="7rCot_XlE3gBc3dF8sh2-19" target="7rCot_XlE3gBc3dF8sh2-20">
          <mxGeometry width="50" height="50" relative="1" as="geometry">
            <mxPoint x="90" y="320" as="sourcePoint" />
            <mxPoint x="140" y="270" as="targetPoint" />
          </mxGeometry>
        </mxCell>
        <mxCell id="7rCot_XlE3gBc3dF8sh2-25" value="" style="endArrow=classic;html=1;rounded=0;exitX=1;exitY=0.25;exitDx=0;exitDy=0;entryX=0;entryY=0.25;entryDx=0;entryDy=0;" edge="1" parent="1" source="7rCot_XlE3gBc3dF8sh2-20" target="7rCot_XlE3gBc3dF8sh2-14">
          <mxGeometry width="50" height="50" relative="1" as="geometry">
            <mxPoint x="270" y="320" as="sourcePoint" />
            <mxPoint x="320" y="270" as="targetPoint" />
          </mxGeometry>
        </mxCell>
        <mxCell id="7rCot_XlE3gBc3dF8sh2-26" value="" style="endArrow=block;dashed=1;endFill=0;endSize=12;html=1;rounded=0;exitX=1;exitY=0.75;exitDx=0;exitDy=0;entryX=0;entryY=0.75;entryDx=0;entryDy=0;" edge="1" parent="1" source="7rCot_XlE3gBc3dF8sh2-12" target="7rCot_XlE3gBc3dF8sh2-10">
          <mxGeometry width="160" relative="1" as="geometry">
            <mxPoint x="210" y="300" as="sourcePoint" />
            <mxPoint x="370" y="300" as="targetPoint" />
          </mxGeometry>
        </mxCell>
        <mxCell id="7rCot_XlE3gBc3dF8sh2-27" value="" style="endArrow=block;dashed=1;endFill=0;endSize=12;html=1;rounded=0;exitX=0;exitY=1;exitDx=0;exitDy=0;entryX=1;entryY=0.75;entryDx=0;entryDy=0;" edge="1" parent="1" source="7rCot_XlE3gBc3dF8sh2-14" target="7rCot_XlE3gBc3dF8sh2-20">
          <mxGeometry width="160" relative="1" as="geometry">
            <mxPoint x="200" y="400" as="sourcePoint" />
            <mxPoint x="414" y="400" as="targetPoint" />
          </mxGeometry>
        </mxCell>
        <mxCell id="7rCot_XlE3gBc3dF8sh2-28" value="" style="endArrow=none;dashed=1;html=1;rounded=0;exitX=1;exitY=0.25;exitDx=0;exitDy=0;" edge="1" parent="1" source="7rCot_XlE3gBc3dF8sh2-16">
          <mxGeometry width="50" height="50" relative="1" as="geometry">
            <mxPoint x="140" y="320" as="sourcePoint" />
            <mxPoint x="180" y="240" as="targetPoint" />
          </mxGeometry>
        </mxCell>
        <mxCell id="7rCot_XlE3gBc3dF8sh2-29" value="" style="endArrow=block;dashed=1;endFill=0;endSize=12;html=1;rounded=0;entryX=1;entryY=0.5;entryDx=0;entryDy=0;" edge="1" parent="1" target="7rCot_XlE3gBc3dF8sh2-17">
          <mxGeometry width="160" relative="1" as="geometry">
            <mxPoint x="80" y="280" as="sourcePoint" />
            <mxPoint x="250" y="300" as="targetPoint" />
          </mxGeometry>
        </mxCell>
        <mxCell id="7rCot_XlE3gBc3dF8sh2-30" value="findCar()" style="text;html=1;align=center;verticalAlign=middle;resizable=0;points=[];autosize=1;strokeColor=none;fillColor=none;" vertex="1" parent="1">
          <mxGeometry x="80" y="160" width="70" height="30" as="geometry" />
        </mxCell>
        <mxCell id="7rCot_XlE3gBc3dF8sh2-31" value="[no Car found]" style="text;html=1;align=center;verticalAlign=middle;resizable=0;points=[];autosize=1;strokeColor=none;fillColor=none;" vertex="1" parent="1">
          <mxGeometry x="65" y="240" width="100" height="30" as="geometry" />
        </mxCell>
        <mxCell id="7rCot_XlE3gBc3dF8sh2-32" value="[Car found]" style="text;html=1;align=center;verticalAlign=middle;resizable=0;points=[];autosize=1;strokeColor=none;fillColor=none;" vertex="1" parent="1">
          <mxGeometry x="140" y="320" width="80" height="30" as="geometry" />
        </mxCell>
        <mxCell id="7rCot_XlE3gBc3dF8sh2-34" value="findCar()" style="text;html=1;align=center;verticalAlign=middle;resizable=0;points=[];autosize=1;strokeColor=none;fillColor=none;" vertex="1" parent="1">
          <mxGeometry x="210" y="160" width="70" height="30" as="geometry" />
        </mxCell>
      </root>
    </mxGraphModel>
  </diagram>
</mxfile>
